<?xml version="1.0" encoding="UTF-8" standalone="no"?>
<!-- Created with Inkscape (http://www.inkscape.org/) -->

<svg
   width="512"
   height="512"
   viewBox="0 0 512 512"
   version="1.1"
   id="svg1"
   inkscape:version="1.4.4 (dcaf3e7d9e, 2026-05-05)"
   sodipodi:docname="aurevoir_logo_square.svg"
   inkscape:export-filename="aurevoir_logo_square.png"
   inkscape:export-xdpi="96"
   inkscape:export-ydpi="96"
   xmlns:inkscape="http://www.inkscape.org/namespaces/inkscape"
   xmlns:sodipodi="http://sodipodi.sourceforge.net/DTD/sodipodi-0.dtd"
   xmlns="http://www.w3.org/2000/svg"
   xmlns:svg="http://www.w3.org/2000/svg">
  <sodipodi:namedview
     id="namedview1"
     pagecolor="#505050"
     bordercolor="#eeeeee"
     borderopacity="1"
     inkscape:showpageshadow="0"
     inkscape:pageopacity="0"
     inkscape:pagecheckerboard="0"
     inkscape:deskcolor="#505050"
     inkscape:document-units="px"
     inkscape:zoom="0.61914062"
     inkscape:cx="253.57729"
     inkscape:cy="255.19243"
     inkscape:window-width="1026"
     inkscape:window-height="511"
     inkscape:window-x="0"
     inkscape:window-y="0"
     inkscape:window-maximized="1"
     inkscape:current-layer="layer1" />
  <defs
     id="defs1" />
  <g
     inkscape:label="Layer 1"
     inkscape:groupmode="layer"
     id="layer1">
    <rect
       style="fill:#0090d5;fill-opacity:1"
       id="rect1"
       width="512"
       height="512"
       x="0"
       y="0"
       ry="0" />
    <g
       id="Calque_1-2"
       data-name="Calque_1"
       transform="matrix(0.60511214,0,0,0.60511214,63.268758,159.48764)">
      <g
         id="g4">
        <path
           class="cls-1"
           d="m 545.64,295.79 c 0,7.68 -0.42,15.26 -1.25,22.71 H 498.6 c 1.06,-7.41 1.61,-15 1.61,-22.71 0,-7.71 -0.55,-15.3 -1.61,-22.71 -1.42,-9.97 -3.77,-19.64 -6.97,-28.92 -1.93,-5.66 -4.18,-11.17 -6.72,-16.51 -4.23,-8.91 -9.27,-17.37 -15.03,-25.29 -4.59,-6.32 -9.63,-12.28 -15.09,-17.85 -0.75,-0.77 -1.53,-1.54 -2.3,-2.3 -4.51,-4.42 -9.27,-8.57 -14.28,-12.43 -8.91,-6.87 -18.58,-12.82 -28.85,-17.7 -4.31,-2.05 -8.73,-3.91 -13.25,-5.56 -10.27,-3.79 -21.03,-6.53 -32.18,-8.13 -7.41,-1.06 -15,-1.61 -22.71,-1.61 h -45.5 c -7.76,0 -15.33,-0.78 -22.65,-2.25 -13.15,-2.67 -25.47,-7.59 -36.54,-14.37 -3.06,-1.88 -6.03,-3.89 -8.89,-6.03 -8.63,-6.47 -16.31,-14.15 -22.79,-22.77 -0.83,-1.11 -1.64,-2.22 -2.43,-3.36 -8.66,-12.44 -14.89,-26.68 -18.01,-42.07 -0.03,-0.12 -0.05,-0.24 -0.07,-0.36 -1.2,-5.99 -1.93,-12.15 -2.13,-18.45 v -7.8 c 0.21,-6.42 0.96,-12.71 2.2,-18.81 h 47.04 c -2.19,6.21 -3.51,12.82 -3.81,19.71 -0.04,0.98 -0.07,1.96 -0.07,2.96 v 0.05 c 0,1.01 0.03,2.01 0.07,3.01 0.3,6.88 1.62,13.5 3.81,19.71 2.61,7.39 6.45,14.19 11.29,20.16 7.86,9.69 18.33,17.19 30.33,21.41 7.08,2.5 14.71,3.86 22.65,3.86 h 45.5 c 7.68,0 15.26,0.42 22.71,1.25 6.51,0.72 12.93,1.74 19.24,3.06 8.96,1.87 17.7,4.32 26.19,7.33 6.51,2.3 12.87,4.92 19.05,7.84 9.19,4.34 18,9.34 26.37,14.96 4.22,2.81 8.31,5.79 12.3,8.91 0.88,0.69 1.75,1.38 2.61,2.08 11.14,9 21.31,19.16 30.33,30.28 0.07,0.08 0.13,0.15 0.19,0.23 3.89,4.8 7.56,9.77 10.99,14.91 5.52,8.24 10.46,16.89 14.74,25.92 3.01,6.33 5.71,12.84 8.06,19.51 5.12,14.47 8.65,29.67 10.39,45.43 0.83,7.46 1.25,15.03 1.25,22.71 z"
           id="path1"
           style="fill:#ffffff;stroke:#ffffff;stroke-miterlimit:10" />
        <path
           class="cls-1"
           d="m 636.5,295.79 c 0,7.65 -0.29,15.21 -0.86,22.71 h -45.59 c 0.68,-7.48 1.02,-15.06 1.02,-22.71 0,-7.65 -0.34,-15.23 -1.02,-22.71 -1.41,-15.6 -4.24,-30.79 -8.39,-45.43 -4.47,-15.84 -10.47,-31.04 -17.83,-45.43 -2.91,-5.68 -6.03,-11.24 -9.34,-16.65 -2.8,-4.59 -5.76,-9.08 -8.85,-13.47 -3.7,-5.25 -7.6,-10.36 -11.69,-15.31 -3.25,-3.93 -6.62,-7.77 -10.11,-11.5 v 0 c -7.39,-7.92 -15.28,-15.34 -23.63,-22.23 -4.04,-3.34 -8.19,-6.56 -12.44,-9.63 -0.95,-0.69 -1.91,-1.38 -2.87,-2.06 -9.57,-6.74 -19.63,-12.82 -30.12,-18.19 -2.31,-1.17 -4.64,-2.32 -6.99,-3.42 -12.29,-5.82 -25.14,-10.65 -38.44,-14.41 -1.44,-0.41 -2.88,-0.81 -4.34,-1.18 -13.29,-3.51 -27.03,-5.94 -41.09,-7.21 -1.39,-0.13 -2.79,-0.24 -4.18,-0.34 -6.12,-0.45 -12.3,-0.68 -18.53,-0.68 h -45.5 c -11.98,0 -21.79,-9.27 -22.65,-21.03 v -3.38 c 0.42,-5.75 2.97,-10.9 6.88,-14.66 4.09,-3.95 9.63,-6.37 15.76,-6.37 h 45.5 c 6.38,0 12.7,0.21 18.98,0.6 1.25,0.08 2.49,0.16 3.74,0.26 15.14,1.16 29.96,3.45 44.37,6.8 0.36,0.08 0.71,0.16 1.06,0.25 15.64,3.69 30.8,8.63 45.36,14.7 0.03,0 0.04,0.02 0.07,0.03 15.32,6.39 29.98,14.02 43.87,22.79 0.08,0.04 0.15,0.09 0.22,0.15 0.45,0.27 0.9,0.56 1.34,0.85 14.02,8.97 27.24,19.11 39.51,30.26 2,1.82 3.97,3.65 5.91,5.53 2.94,2.82 5.83,5.71 8.65,8.65 7.67,7.99 14.9,16.41 21.63,25.23 4.99,6.52 9.71,13.26 14.15,20.19 0.33,0.51 0.67,1.04 0.99,1.56 8.77,13.89 16.41,28.55 22.79,43.87 6.09,14.59 11.04,29.77 14.73,45.43 3.49,14.74 5.86,29.92 7.05,45.43 0.57,7.5 0.86,15.07 0.86,22.71 z"
           id="path2"
           style="fill:#ffffff;stroke:#ffffff;stroke-miterlimit:10" />
        <path
           class="cls-1"
           d="m 454.79,295.79 c 0,7.78 -0.78,15.38 -2.27,22.71 h -47.04 c 2.51,-7.09 3.87,-14.72 3.88,-22.66 v -0.05 c 0,-7.96 -1.36,-15.61 -3.88,-22.71 -2.61,-7.39 -6.45,-14.19 -11.29,-20.16 -7.84,-9.68 -18.28,-17.16 -30.26,-21.39 -7.11,-2.52 -14.75,-3.88 -22.71,-3.88 h -45.5 c -7.65,0 -15.21,-0.42 -22.65,-1.24 -6.53,-0.72 -12.98,-1.75 -19.31,-3.07 -8.93,-1.86 -17.65,-4.31 -26.12,-7.3 -6.53,-2.31 -12.92,-4.94 -19.12,-7.87 -9.16,-4.33 -17.95,-9.32 -26.31,-14.91 -4.23,-2.83 -8.37,-5.82 -12.37,-8.96 -0.88,-0.69 -1.75,-1.38 -2.61,-2.08 -11.14,-9 -21.31,-19.16 -30.33,-30.28 -0.04,-0.05 -0.09,-0.09 -0.12,-0.15 -3.91,-4.83 -7.6,-9.83 -11.06,-15 -5.52,-8.24 -10.46,-16.89 -14.74,-25.92 -3.01,-6.33 -5.71,-12.84 -8.06,-19.51 C 97.8,76.89 94.27,61.69 92.53,45.93 91.89,40.19 91.49,34.37 91.35,28.5 V 17.94 C 91.5,12.07 91.89,6.25 92.53,0.51 h 45.79 c -0.85,5.93 -1.37,11.97 -1.54,18.1 -0.04,1.53 -0.07,3.07 -0.07,4.61 0,1.54 0.03,3.09 0.07,4.62 0.17,6.12 0.69,12.16 1.54,18.09 1.42,9.97 3.77,19.64 6.97,28.92 1.93,5.66 4.18,11.17 6.72,16.51 4.23,8.91 9.27,17.37 15.03,25.29 4.6,6.34 9.68,12.33 15.16,17.91 0.73,0.75 1.47,1.5 2.23,2.23 4.51,4.42 9.27,8.57 14.28,12.43 8.94,6.89 18.63,12.85 28.92,17.73 4.29,2.04 8.69,3.89 13.18,5.54 10.29,3.8 21.08,6.55 32.25,8.13 7.4,1.05 14.96,1.6 22.65,1.6 h 45.5 c 7.78,0 15.38,0.78 22.71,2.27 13.12,2.67 25.42,7.59 36.47,14.35 3.09,1.89 6.08,3.92 8.96,6.09 8.61,6.46 16.26,14.12 22.72,22.72 0.83,1.11 1.64,2.22 2.43,3.36 8.66,12.44 14.89,26.68 18.01,42.07 0.03,0.12 0.05,0.24 0.07,0.36 1.45,7.23 2.2,14.7 2.2,22.35 z"
           id="path3"
           style="fill:#ffffff;stroke:#ffffff;stroke-miterlimit:10" />
        <path
           class="cls-1"
           d="m 363.93,295.79 c 0,6.42 -2.66,12.21 -6.94,16.35 v 0 c -4.09,3.95 -9.63,6.37 -15.76,6.37 h -45.5 c -6.38,0 -12.7,-0.21 -18.98,-0.6 -1.23,-0.08 -2.44,-0.16 -3.67,-0.25 -15.15,-1.16 -30,-3.45 -44.43,-6.81 -0.33,-0.08 -0.67,-0.15 -0.99,-0.24 -15.66,-3.69 -30.84,-8.63 -45.43,-14.71 -15.34,-6.39 -30.03,-14.05 -43.94,-22.83 -0.08,-0.04 -0.15,-0.09 -0.22,-0.15 -0.43,-0.27 -0.85,-0.53 -1.27,-0.81 -14.05,-8.98 -27.29,-19.13 -39.58,-30.3 -1.97,-1.79 -3.92,-3.61 -5.85,-5.47 -2.97,-2.84 -5.87,-5.74 -8.72,-8.71 -7.67,-7.99 -14.9,-16.41 -21.63,-25.23 -4.99,-6.52 -9.71,-13.26 -14.15,-20.19 -0.32,-0.48 -0.63,-0.97 -0.93,-1.46 C 37.15,166.84 29.47,152.14 23.08,136.78 16.99,122.19 12.04,107.01 8.35,91.35 4.86,76.61 2.49,61.43 1.3,45.92 0.89,40.45 0.62,34.95 0.51,29.4 V 17.01 C 0.62,11.46 0.89,5.95 1.3,0.48 h 45.59 c -0.51,5.64 -0.83,11.33 -0.95,17.07 -0.05,1.88 -0.07,3.75 -0.07,5.64 0,1.89 0.02,3.76 0.07,5.64 0.12,5.74 0.45,11.43 0.95,17.07 1.41,15.6 4.24,30.79 8.39,45.43 4.47,15.84 10.47,31.04 17.83,45.43 2.91,5.68 6.03,11.24 9.34,16.65 2.83,4.62 5.8,9.15 8.91,13.56 3.68,5.22 7.55,10.29 11.62,15.21 3.25,3.94 6.63,7.78 10.11,11.51 7.41,7.93 15.33,15.38 23.7,22.29 4.02,3.32 8.14,6.51 12.37,9.57 0.95,0.69 1.91,1.38 2.87,2.06 9.59,6.75 19.67,12.85 30.19,18.22 2.29,1.17 4.59,2.3 6.92,3.39 12.32,5.83 25.18,10.67 38.51,14.43 1.41,0.4 2.84,0.79 4.27,1.16 13.31,3.51 27.07,5.95 41.16,7.22 1.36,0.12 2.73,0.23 4.11,0.33 6.12,0.45 12.3,0.68 18.53,0.68 h 45.5 c 12.55,0 22.71,10.17 22.71,22.71 z"
           id="path4"
           style="fill:#ffffff;stroke:#ffffff;stroke-miterlimit:10" />
      </g>
    </g>
  </g>
</svg>
